<svg xmlns="http://www.w3.org/2000/svg" aria-hidden="true" style="position:absolute;width:0;height:0;overflow:hidden"><defs><symbol id="icon-Object-1" viewBox="0 0 67 32"><path fill="" d="M33.72 15.22a2.1 2.1 0 0 1-.43-1.41v-2.05c0-.63.15-1.1.43-1.43s.78-.5 1.47-.5c.65 0 1.12.15 1.39.43.3.35.44.79.41 1.22v.48h-1.17v-.48c0-.16 0-.32-.03-.48a.47.47 0 0 0-.17-.29.68.68 0 0 0-.42-.1.71.71 0 0 0-.44.11c-.1.08-.17.2-.2.31a2.4 2.4 0 0 0-.04.51v2.49c-.02.24.03.48.15.7a.6.6 0 0 0 .53.2c.15.02.3-.02.41-.1a.5.5 0 0 0 .18-.31c.02-.16.04-.33.03-.5v-.5H37v.46c.03.45-.1.9-.4 1.29-.27.3-.73.45-1.4.45s-1.18-.16-1.46-.5zM38.58 15.24c-.3-.31-.44-.78-.44-1.4V11.7c0-.61.15-1.07.44-1.39s.8-.46 1.48-.46c.69 0 1.18.15 1.47.46.3.32.45.78.45 1.39v2.15c0 .61-.15 1.08-.45 1.4s-.8.48-1.47.48c-.68 0-1.18-.16-1.48-.48zm2.02-.51c.11-.2.16-.42.14-.64v-2.64c.02-.22-.03-.43-.13-.63-.06-.07-.15-.13-.24-.17s-.2-.05-.3-.04c-.11-.01-.22 0-.32.04s-.18.1-.24.17c-.1.2-.15.41-.14.63v2.65c-.01.22.04.44.14.64.07.07.16.12.25.16s.2.05.3.05c.1 0 .2-.02.3-.05s.18-.1.24-.16v-.01zM43.38 9.9h1.26l.94 3.98.97-3.98h1.22l.12 5.74H47l-.1-3.99-.93 4h-.73l-.96-4.01-.1 4h-.9l.11-5.74zM49.3 9.9h1.96c1.13 0 1.69.54 1.69 1.63 0 1.04-.6 1.56-1.78 1.56h-.67v2.56h-1.2V9.9zm1.67 2.46a.94.94 0 0 0 .67-.19c.14-.19.2-.42.17-.65 0-.17-.01-.35-.06-.52-.01-.05-.04-.1-.09-.15s-.09-.09-.15-.12c-.17-.07-.35-.1-.54-.1h-.47v1.72h.47zM54.7 9.9h1.29l1.33 5.74h-1.13l-.26-1.32h-1.16l-.27 1.32h-1.14l1.33-5.74zm1.1 3.75-.45-2.4-.45 2.4h.9zM58.4 9.9h.84l1.62 3.28V9.9h1v5.74h-.8l-1.63-3.42v3.42H58.4V9.9zM64.2 13.46 62.87 9.9H64l.82 2.28.77-2.28h1.1l-1.32 3.54v2.2H64.2v-2.2zM35.59 18.16v.3h-.99v2.33h-.41v-2.33h-.99v-.3h2.39zM38.68 20.79h-.32c-.03 0-.06 0-.09-.03a.13.13 0 0 1-.05-.06l-.29-.62h-1.36l-.29.63-.04.07a.15.15 0 0 1-.1.02h-.31l1.2-2.63h.43l1.22 2.62zm-2-.98h1.14l-.48-1.07a1.75 1.75 0 0 1-.1-.25l-.04.14-.04.11-.48 1.07zM40.76 20.53H41a1.39 1.39 0 0 0 .37-.08l.16-.06v-.6H41l-.03-.01-.02-.03v-.22h.93v1a1.84 1.84 0 0 1-.8.27c-.13.02-.24.02-.36.02-.21 0-.42-.03-.61-.1a1.3 1.3 0 0 1-.8-.7 1.32 1.32 0 0 1-.1-.54c-.01-.18.03-.37.1-.55.07-.15.18-.3.31-.41.14-.12.3-.22.49-.28a2.04 2.04 0 0 1 .98-.07 1.65 1.65 0 0 1 .53.17l.21.14-.12.16c0 .02-.02.03-.04.04l-.05.01c-.03 0-.05 0-.08-.02a1.58 1.58 0 0 1-.11-.06c-.05-.03-.1-.06-.17-.07a1.5 1.5 0 0 0-.52-.09c-.16 0-.32.03-.47.08-.13.04-.26.12-.36.2-.1.1-.17.21-.22.33-.1.29-.1.6 0 .88a1.03 1.03 0 0 0 1.07.6zM44.61 20.49h1.32v.3h-1.72v-2.63h.41v2.33zM47.3 20.79h-.4v-2.63h.4v2.63zM48.84 18.17c.03.01.05.03.06.05l1.77 1.98V18.15h.36v2.64h-.2l-.1-.01a.23.23 0 0 1-.06-.05l-1.77-1.99v2.05h-.34v-2.63h.21a.2.2 0 0 1 .07 0zM54.07 18.16v.29h-1.46v.87h1.18v.27h-1.18v.9h1.46v.3h-1.89v-2.63h1.89zM10.78 1.89l18.34 4.5v15.75l-18.34-4.5V1.9zM9.61.55V18.4L30.3 23.5V5.62L9.6.54z" style=""/><path fill="" d="M20.7 31.78 0 26.7V8.84l20.7 5.07v17.87z" style=""/><path fill="" d="m9.95 1.69 18.1 4.44-7.7 6.65-18.1-4.45 7.7-6.64zM9.6.54 0 8.85l20.7 5.07 9.6-8.29L9.6.55zM21.86 30.78l8.44-7.3-8.44-2.06v9.36z" style=""/></symbol><symbol id="icon-Union" viewBox="0 0 27 32"><path fill="" d="M4 .47 8.67 4.9H0v21.45h22.67v-8.2l4.66 4.42V.46H4zm18.46 17.16L9.21 5.09h13.25v12.54zm-4.11 5.58H3.59V8.78h1.04v13.45h13.72v.98zm-11.28 6-.54 1.12-.55-1.12h-.45l.8 1.5v.87h.4v-.88l.8-1.5h-.46zm.69 2.37.19-.55h.92l.2.55h.42l-.9-2.37h-.36l-.9 2.37h.43zm.65-1.87.34.98h-.68l.34-.98zm2.17.93a.62.62 0 0 0 .12.79c.14.12.33.18.56.18s.44-.06.6-.19l.14.16h.46l-.35-.41c.14-.19.2-.43.2-.72h-.34c0 .16-.03.3-.1.43l-.45-.54.16-.11a.9.9 0 0 0 .24-.25.52.52 0 0 0 .08-.27.49.49 0 0 0-.17-.38.6.6 0 0 0-.42-.15c-.19 0-.34.05-.46.16a.58.58 0 0 0-.16.44c0 .08.01.15.05.24.04.08.1.18.2.3-.18.12-.3.23-.36.32zm1.07.52a.6.6 0 0 1-.38.13c-.11 0-.2-.03-.28-.1s-.1-.16-.1-.27c0-.12.06-.24.2-.34l.04-.03.52.6zm-.43-1.05c-.1-.14-.16-.25-.16-.34 0-.08.02-.15.06-.2s.11-.08.19-.08c.07 0 .13.03.18.07.04.04.07.1.07.16a.3.3 0 0 1-.1.23l-.06.04-.18.12zm3.86 1.29a.86.86 0 0 0 .28-.6h-.4c-.03.18-.08.3-.16.37s-.2.1-.37.1a.46.46 0 0 1-.4-.2c-.1-.13-.14-.32-.14-.58v-.2c0-.26.05-.45.15-.58.1-.13.23-.2.41-.2.15 0 .27.04.35.11.08.08.13.2.15.37h.41c-.03-.26-.12-.46-.28-.6s-.37-.21-.63-.21c-.2 0-.37.04-.51.13-.15.1-.26.23-.34.4s-.12.37-.12.59v.22c0 .22.04.41.12.58s.19.29.33.38c.15.09.31.13.5.13.27 0 .49-.07.65-.21zm2.42-.33c.08-.18.12-.38.12-.62v-.13c0-.23-.04-.43-.12-.6a.9.9 0 0 0-.35-.4c-.15-.1-.32-.14-.51-.14s-.37.04-.52.14a.92.92 0 0 0-.34.4c-.08.18-.13.38-.13.62v.13c0 .23.05.43.13.6.08.17.2.3.35.4.15.1.32.14.51.14a.9.9 0 0 0 .86-.54zm-.44-1.34c.1.14.15.34.15.6v.13c0 .26-.05.46-.15.6-.1.14-.23.21-.42.21a.5.5 0 0 1-.42-.21c-.1-.14-.15-.34-.15-.6v-.14c0-.26.05-.45.15-.6.1-.13.24-.2.42-.2s.32.07.42.2z" style=""/></symbol></defs></svg>